<svg viewBox="0 0 30.7731 27.398" class="apple_svg" version="1.1" aria-hidden="true" focusable="false" role="img" xmlns="http://www.w3.org/2000/svg">
  <g fill="currentColor">
    <path d="M20.1036 15.9497C19.6103 16.3628 19.1806 16.8491 18.8329 17.3925C17.8848 16.9716 16.7291 16.6975 15.3864 16.6975C11.1985 16.6975 8.82903 19.3655 8.82903 20.7827C8.82903 20.9471 8.90916 21.0161 9.12078 21.0161L17.7895 21.0161C17.7962 21.6611 17.9033 22.2832 18.0941 22.8691L9.33289 22.8691C7.60999 22.8691 6.76406 22.3085 6.76406 21.1085C6.76406 18.3512 10.1938 14.8445 15.3864 14.8445C17.2008 14.8445 18.7987 15.2712 20.1036 15.9497ZM19.7015 9.08538C19.7015 11.6631 17.7804 13.7565 15.3893 13.7565C13.007 13.7565 11.0784 11.6705 11.0784 9.10019C11.0784 6.57599 13.0198 4.51785 15.3893 4.51785C17.7736 4.51785 19.7015 6.55234 19.7015 9.08538ZM12.9981 9.09656C12.9981 10.7116 14.0982 11.9109 15.3893 11.9109C16.6987 11.9109 17.7818 10.6968 17.7818 9.08538C17.7818 7.51867 16.697 6.37088 15.3893 6.37088C14.0912 6.37088 12.9981 7.53491 12.9981 9.09656Z"/>
    <path d="M29.3593 20.8995C29.3593 23.6705 27.0366 25.9753 24.2783 25.9753C21.4992 25.9753 19.2062 23.6853 19.2062 20.8995C19.2062 18.1226 21.4992 15.831 24.2783 15.831C27.0603 15.831 29.3593 18.1212 29.3593 20.8995ZM23.4902 18.4654L23.4902 20.7657L23.541 21.8407L23.0842 21.3765L22.2643 20.4883C22.1396 20.3453 21.9313 20.2477 21.7327 20.2551C21.3148 20.2551 20.982 20.5679 20.9968 20.9822C21.0042 21.1888 21.081 21.3663 21.2437 21.5105L23.7095 23.8295C23.9104 24.023 24.0877 24.0994 24.2871 24.0994C24.4968 24.0994 24.6667 24.0128 24.8648 23.8295L27.338 21.5105C27.5006 21.3663 27.5775 21.1874 27.5775 20.9822C27.5775 20.5679 27.2535 20.2403 26.8416 20.2551C26.643 20.2625 26.4407 20.3453 26.3114 20.4883L25.4901 21.3765L25.0421 21.8407L25.0915 20.7657L25.0915 18.4654C25.0915 18.0286 24.7415 17.6956 24.2871 17.6956C23.8342 17.6956 23.4902 18.0286 23.4902 18.4654Z"/>
  </g>
</svg>
