<svg viewBox="0 0 30.214 27.398" class="apple_svg" version="1.1" aria-hidden="true" focusable="false" role="img" xmlns="http://www.w3.org/2000/svg">
  <g fill="currentColor">
    <path d="M19.3875 16.0925C18.0612 17.2792 17.2244 19.0003 17.2244 20.8995C17.2244 21.4703 17.2994 22.0247 17.4474 22.5506L8.64622 22.5506C7.51634 22.5506 6.83395 22.007 6.83395 21.1049C6.83395 18.5992 10.0464 15.1572 15.1044 15.1572C16.7427 15.1572 18.187 15.5172 19.3875 16.0925ZM19.0722 9.08175C19.0722 11.5317 17.2717 13.4366 15.1073 13.4366C12.9502 13.4366 11.1483 11.5317 11.1483 9.09656C11.1483 6.72367 12.9617 4.82906 15.1073 4.82906C17.2602 4.82906 19.0722 6.69404 19.0722 9.08175Z"/>
    <path d="M28.8001 20.8995C28.8001 23.6705 26.4775 25.9753 23.7192 25.9753C20.9401 25.9753 18.6471 23.6853 18.6471 20.8995C18.6471 18.1226 20.9401 15.831 23.7192 15.831C26.5012 15.831 28.8001 18.1212 28.8001 20.8995ZM22.9311 18.4654L22.9311 20.7657L22.9819 21.8407L22.525 21.3765L21.7052 20.4883C21.5804 20.3453 21.3722 20.2477 21.1736 20.2551C20.7557 20.2551 20.4229 20.5679 20.4377 20.9822C20.4451 21.1888 20.5219 21.3663 20.6846 21.5105L23.1504 23.8295C23.3513 24.023 23.5286 24.0994 23.728 24.0994C23.9377 24.0994 24.1076 24.0128 24.3057 23.8295L26.7789 21.5105C26.9415 21.3663 27.0184 21.1874 27.0184 20.9822C27.0184 20.5679 26.6943 20.2403 26.2825 20.2551C26.0838 20.2625 25.8816 20.3453 25.7523 20.4883L24.931 21.3765L24.483 21.8407L24.5324 20.7657L24.5324 18.4654C24.5324 18.0286 24.1824 17.6956 23.728 17.6956C23.2751 17.6956 22.9311 18.0286 22.9311 18.4654Z"/>
 </g>
</svg>
