<svg viewBox="0 0 32.0755 27.398" class="apple_svg" version="1.1" aria-hidden="true" focusable="false" role="img" xmlns="http://www.w3.org/2000/svg">
  <g fill="currentColor">
    <path d="M26.2215 13.6964L26.1833 14.4392C25.9853 14.4179 25.784 14.4083 25.5806 14.4083C25.0073 14.4083 24.45 14.4845 23.9214 14.6345C23.9624 14.3281 23.9809 14.0145 23.9809 13.6964C23.9809 9.29024 20.4326 5.74935 16.0264 5.74935C11.6277 5.74935 8.10019 9.29024 8.10019 13.6964C8.10019 18.1026 11.6351 21.6434 16.0338 21.6434C17.1197 21.6434 18.153 21.4284 19.0928 21.0365C19.1037 21.8111 19.2578 22.5527 19.5317 23.2363C18.4421 23.6541 17.2615 23.8766 16.0338 23.8766C10.4588 23.8766 5.85362 19.2774 5.85362 13.6964C5.85362 8.1154 10.4514 3.51617 16.0264 3.51617C21.6074 3.51617 26.2215 8.1154 26.2215 13.6964Z"/>
    <path d="M20.6106 16.7463C20.1635 17.2754 19.8005 17.8769 19.546 18.5311L11.8113 18.5311C11.3624 18.5311 11.1386 18.2113 11.1386 17.8049C11.1386 16.7596 12.6707 14.0771 16.0264 14.0771C18.5245 14.0771 20.0124 15.5571 20.6106 16.7463ZM18.4834 10.6468C18.4834 12.1814 17.3865 13.3393 16.0264 13.3318C14.6737 13.3244 13.5769 12.1814 13.5769 10.6468C13.5769 9.21338 14.6737 8.02409 16.0264 8.02409C17.3865 8.02409 18.4834 9.21338 18.4834 10.6468Z"/>
    <path d="M30.6616 20.8995C30.6616 23.6705 28.339 25.9753 25.5806 25.9753C22.8015 25.9753 20.5085 23.6853 20.5085 20.8995C20.5085 18.1226 22.8015 15.831 25.5806 15.831C28.3626 15.831 30.6616 18.1212 30.6616 20.8995ZM24.7925 18.4654L24.7925 20.7657L24.8433 21.8407L24.3865 21.3765L23.5666 20.4883C23.4419 20.3453 23.2336 20.2477 23.035 20.2551C22.6172 20.2551 22.2843 20.5679 22.2991 20.9822C22.3065 21.1888 22.3834 21.3663 22.546 21.5105L25.0118 23.8295C25.2128 24.023 25.3901 24.0994 25.5895 24.0994C25.7991 24.0994 25.969 24.0128 26.1672 23.8295L28.6403 21.5105C28.803 21.3663 28.8798 21.1874 28.8798 20.9822C28.8798 20.5679 28.5558 20.2403 28.1439 20.2551C27.9453 20.2625 27.7431 20.3453 27.6137 20.4883L26.7925 21.3765L26.3445 21.8407L26.3938 20.7657L26.3938 18.4654C26.3938 18.0286 26.0438 17.6956 25.5895 17.6956C25.1366 17.6956 24.7925 18.0286 24.7925 18.4654Z"/>
 </g>
</svg>
