<svg viewBox="0 0 36.3104 27.398" class="apple_svg" version="1.1" aria-hidden="true" focusable="false" role="img" xmlns="http://www.w3.org/2000/svg">
  <g fill="currentColor">
  <path d="M30.2381 8.30695L30.2381 14.4299C30.0997 14.413 29.9582 14.4083 29.8156 14.4083C29.2616 14.4083 28.7227 14.4794 28.2105 14.6205L28.2105 8.38968C28.2105 8.36697 28.2102 8.34455 28.2082 8.32358L22.7046 13.277L25.5035 16.0747C25.0431 16.4771 24.6445 16.9474 24.3229 17.4699L21.3495 14.4966L20.089 15.6312C19.47 16.2005 18.8586 16.4438 18.1499 16.4438C17.4486 16.4438 16.8372 16.2005 16.2108 15.6312L14.9557 14.5008L9.11442 20.3358C9.20943 20.351 9.31075 20.3586 9.41796 20.3586L23.3486 20.3586C23.3285 20.5362 23.3208 20.7171 23.3208 20.8995C23.3208 21.4086 23.3805 21.9047 23.4993 22.3788L9.37969 22.3788C7.22518 22.3788 6.0719 21.2404 6.0719 19.1007L6.0719 8.30695C6.0719 6.16725 7.21777 5.02879 9.17225 5.02879L26.9303 5.02879C29.0774 5.02879 30.2381 6.16725 30.2381 8.30695ZM8.09953 8.38226L8.09953 18.7785L13.5977 13.2778L8.10146 8.32766ZM9.41796 7.04901L9.39207 7.04992L17.32 14.1914C17.5851 14.4377 17.8617 14.5578 18.1499 14.5578C18.4455 14.5578 18.7221 14.4377 18.9872 14.1914L26.915 7.05007C26.9054 7.04908 26.895 7.04901 26.8847 7.04901Z"/>
  <path d="M34.8966 20.8995C34.8966 23.6705 32.5739 25.9753 29.8156 25.9753C27.0365 25.9753 24.7435 23.6853 24.7435 20.8995C24.7435 18.1226 27.0365 15.831 29.8156 15.831C32.5976 15.831 34.8966 18.1212 34.8966 20.8995ZM29.0275 18.4654L29.0275 20.7657L29.0783 21.8407L28.6215 21.3765L27.8016 20.4883C27.6768 20.3453 27.4686 20.2477 27.27 20.2551C26.8521 20.2551 26.5193 20.5679 26.5341 20.9822C26.5415 21.1888 26.6183 21.3663 26.781 21.5105L29.2468 23.8295C29.4477 24.023 29.625 24.0994 29.8244 24.0994C30.0341 24.0994 30.204 24.0128 30.4021 23.8295L32.8753 21.5105C33.0379 21.3663 33.1148 21.1874 33.1148 20.9822C33.1148 20.5679 32.7908 20.2403 32.3789 20.2551C32.1803 20.2625 31.978 20.3453 31.8487 20.4883L31.0274 21.3765L30.5794 21.8407L30.6288 20.7657L30.6288 18.4654C30.6288 18.0286 30.2788 17.6956 29.8244 17.6956C29.3715 17.6956 29.0275 18.0286 29.0275 18.4654Z"/>
 </g>
</svg>
