<svg viewBox="0 0 32.0755 27.398" class="apple_svg" version="1.1" aria-hidden="true" focusable="false" role="img" xmlns="http://www.w3.org/2000/svg">
  <g fill="currentColor">
  <path d="M26.2215 13.6964L26.1833 14.4392C25.9853 14.4179 25.784 14.4083 25.5806 14.4083C25.0073 14.4083 24.45 14.4845 23.9214 14.6345C23.9624 14.3281 23.9809 14.0145 23.9809 13.6964C23.9809 9.29024 20.4326 5.74935 16.0264 5.74935C11.6277 5.74935 8.10019 9.29024 8.10019 13.6964C8.10019 18.1026 11.6351 21.6434 16.0338 21.6434C17.1197 21.6434 18.153 21.4284 19.0928 21.0365C19.1037 21.8111 19.2578 22.5527 19.5317 23.2363C18.4421 23.6541 17.2615 23.8766 16.0338 23.8766C10.4588 23.8766 5.85362 19.2774 5.85362 13.6964C5.85362 8.1154 10.4514 3.51617 16.0264 3.51617C21.6074 3.51617 26.2215 8.1154 26.2215 13.6964Z"/>
  <path d="M20.4314 16.9774C20.2447 17.2092 20.0793 17.4579 19.9351 17.72L11.8475 17.72C11.5213 17.72 11.2601 17.6451 11.0674 17.5314L14.5358 14.0704L15.1338 14.5935C15.4189 14.8522 15.7125 14.9682 16.0307 14.9682C16.3414 14.9682 16.6351 14.8522 16.9276 14.5935L17.5182 14.0704ZM13.9048 13.5085L10.5383 16.871C10.4725 16.6923 10.4345 16.4872 10.4345 16.2121L10.4345 11.1807C10.4345 10.8849 10.4799 10.6461 10.5367 10.5259ZM21.6255 11.1807L21.6255 15.7764C21.3974 15.945 21.1848 16.1329 20.9857 16.3343L18.1491 13.5085L21.5232 10.5273C21.5814 10.6504 21.6255 10.8849 21.6255 11.1807ZM20.9897 9.8814L16.4304 13.9164C16.2949 14.043 16.1671 14.0952 16.0307 14.0952C15.9017 14.0952 15.7665 14.043 15.6236 13.9164L11.0717 9.87998C11.3191 9.73521 11.5921 9.67277 11.9512 9.67277L20.1087 9.67277C20.4604 9.67277 20.7348 9.73663 20.9897 9.8814Z"/>
  <path d="M30.6616 20.8995C30.6616 23.6705 28.339 25.9753 25.5806 25.9753C22.8015 25.9753 20.5085 23.6853 20.5085 20.8995C20.5085 18.1226 22.8015 15.831 25.5806 15.831C28.3626 15.831 30.6616 18.1212 30.6616 20.8995ZM24.7925 18.4654L24.7925 20.7657L24.8433 21.8407L24.3865 21.3765L23.5666 20.4883C23.4419 20.3453 23.2336 20.2477 23.035 20.2551C22.6172 20.2551 22.2843 20.5679 22.2991 20.9822C22.3065 21.1888 22.3834 21.3663 22.546 21.5105L25.0118 23.8295C25.2128 24.023 25.3901 24.0994 25.5895 24.0994C25.7991 24.0994 25.969 24.0128 26.1672 23.8295L28.6403 21.5105C28.803 21.3663 28.8798 21.1874 28.8798 20.9822C28.8798 20.5679 28.5558 20.2403 28.1439 20.2551C27.9453 20.2625 27.7431 20.3453 27.6137 20.4883L26.7925 21.3765L26.3445 21.8407L26.3938 20.7657L26.3938 18.4654C26.3938 18.0286 26.0438 17.6956 25.5895 17.6956C25.1366 17.6956 24.7925 18.0286 24.7925 18.4654Z"/>
 </g>
</svg>
