<svg viewBox="0 0 24.1666 17.3596" class="apple_svg" version="1.1" aria-hidden="true" focusable="false" role="img" xmlns="http://www.w3.org/2000/svg">
  <g fill="currentColor">
  <path d="M3.30778 17.3596L21.0645 17.3596C23.0129 17.3596 24.1662 16.2212 24.1662 14.0815L24.1662 3.28777C24.1662 1.14807 23.0055 0.00961635 20.8584 0.00961635L3.10035 0.00961635C1.14587 0.00961635 8.88178e-16 1.14807 8.88178e-16 3.28777L8.88178e-16 14.0815C8.88178e-16 16.2212 1.15328 17.3596 3.30778 17.3596ZM3.34606 15.3394C2.50601 15.3394 2.02763 14.8759 2.02763 13.9988L2.02763 3.36308C2.02763 2.49339 2.50601 2.02983 3.34606 2.02983L20.8128 2.02983C21.6602 2.02983 22.1386 2.49339 22.1386 3.3705L22.1386 14.0062C22.1386 14.8759 21.6602 15.3394 20.8128 15.3394ZM12.078 11.4247C12.7867 11.4247 13.3981 11.1813 14.0171 10.612L23.1008 2.43627L21.8203 1.15062L12.9153 9.17226C12.6502 9.41848 12.3736 9.53867 12.078 9.53867C11.7898 9.53867 11.5132 9.41848 11.2481 9.17226L2.34313 1.15062L1.06111 2.43627L10.1389 10.612C10.7653 11.1813 11.3767 11.4247 12.078 11.4247ZM2.51572 15.8429L9.41409 8.95193L8.10793 7.67623L1.23149 14.5558ZM21.6505 15.8503L22.9407 14.5632L16.0509 7.67623L14.7521 8.95193Z"/>
 </g>
</svg>
