<svg viewBox="0 0 36.3104 27.398" class="apple_svg" version="1.1" aria-hidden="true" focusable="false" role="img" xmlns="http://www.w3.org/2000/svg">
  <g fill="currentColor">
  <path d="M24.3252 17.4662C23.6878 18.4621 23.3208 19.6418 23.3208 20.8995C23.3208 21.4086 23.3805 21.9047 23.4993 22.3788L9.17225 22.3788C8.45517 22.3788 7.87738 22.2235 7.46283 21.9772L14.9413 14.5047L16.2108 15.6312C16.8446 16.1931 17.4634 16.4513 18.1513 16.4513C18.8467 16.4513 19.4654 16.1931 20.0992 15.6312L21.3613 14.5047ZM13.5762 13.2991L6.31216 20.5552C6.1626 20.1701 6.0719 19.7016 6.0719 19.1007L6.0719 8.30695C6.0719 7.64764 6.18247 7.13956 6.30902 6.85756ZM30.2381 8.30695L30.2381 14.4299C30.0997 14.413 29.9582 14.4083 29.8156 14.4083C28.1684 14.4083 26.6543 15.037 25.5079 16.0706L22.7338 13.2991L29.9995 6.85756C30.1275 7.13956 30.2381 7.64764 30.2381 8.30695ZM28.8328 5.47339L19.03 14.17C18.7248 14.4452 18.4481 14.5618 18.1513 14.5618C17.8619 14.5618 17.5852 14.4452 17.28 14.17L7.46981 5.47339C8.00496 5.16805 8.60181 5.02879 9.37969 5.02879L26.9303 5.02879C27.7082 5.02879 28.3051 5.16805 28.8328 5.47339Z"/>
  <path d="M34.8966 20.8995C34.8966 23.6705 32.5739 25.9753 29.8156 25.9753C27.0365 25.9753 24.7435 23.6853 24.7435 20.8995C24.7435 18.1226 27.0365 15.831 29.8156 15.831C32.5976 15.831 34.8966 18.1212 34.8966 20.8995ZM29.0275 18.4654L29.0275 20.7657L29.0783 21.8407L28.6215 21.3765L27.8016 20.4883C27.6768 20.3453 27.4686 20.2477 27.27 20.2551C26.8521 20.2551 26.5193 20.5679 26.5341 20.9822C26.5415 21.1888 26.6183 21.3663 26.781 21.5105L29.2468 23.8295C29.4477 24.023 29.625 24.0994 29.8244 24.0994C30.0341 24.0994 30.204 24.0128 30.4021 23.8295L32.8753 21.5105C33.0379 21.3663 33.1148 21.1874 33.1148 20.9822C33.1148 20.5679 32.7908 20.2403 32.3789 20.2551C32.1803 20.2625 31.978 20.3453 31.8487 20.4883L31.0274 21.3765L30.5794 21.8407L30.6288 20.7657L30.6288 18.4654C30.6288 18.0286 30.2788 17.6956 29.8244 17.6956C29.3715 17.6956 29.0275 18.0286 29.0275 18.4654Z"/>
 </g>
</svg>
