<svg viewBox="0 0 24.1666 17.3596" class="apple_svg_email" version="1.1" aria-hidden="true" focusable="false" role="img" xmlns="http://www.w3.org/2000/svg">
  <g fill="currentColor">
  <path d="M12.0794 9.54258C12.3762 9.54258 12.6529 9.42603 12.9581 9.15078L22.7609 0.454212C22.2332 0.148876 21.6363 0.00961635 20.8584 0.00961635L3.30778 0.00961635C2.52991 0.00961635 1.93306 0.148876 1.39791 0.454212L11.2081 9.15078C11.5133 9.42603 11.79 9.54258 12.0794 9.54258ZM0.24026 15.536L7.50429 8.27988L0.237117 1.83839C0.110573 2.12038 8.88178e-16 2.62846 8.88178e-16 3.28777L8.88178e-16 14.0815C8.88178e-16 14.6824 0.0907004 15.1509 0.24026 15.536ZM3.10035 17.3596L21.0645 17.3596C21.783 17.3596 22.3533 17.2043 22.7679 16.9581L15.2894 9.48554L14.0273 10.612C13.3935 11.1739 12.7748 11.4321 12.0794 11.4321C11.3915 11.4321 10.7727 11.1739 10.1389 10.612L8.86942 9.48554L1.39093 16.9581C1.80548 17.2043 2.38327 17.3596 3.10035 17.3596ZM23.9246 15.536C24.0681 15.1509 24.1662 14.6824 24.1662 14.0815L24.1662 3.28777C24.1662 2.62846 24.0556 2.12038 23.9276 1.83839L16.6619 8.27988Z"/>
 </g>
</svg>
