<svg viewBox="0 0 32.0755 27.398" class="apple_svg" version="1.1" aria-hidden="true" focusable="false" role="img" xmlns="http://www.w3.org/2000/svg">
  <g fill="currentColor">
  <path d="M26.2215 13.7089L26.184 14.4392C25.9857 14.4179 25.7842 14.4083 25.5806 14.4083C24.2126 14.4083 22.9364 14.842 21.886 15.581L21.886 11.0904C21.886 10.78 21.8346 10.5344 21.775 10.4003L18.2592 13.51L21.0373 16.2848C20.8239 16.4916 20.6261 16.7143 20.4492 16.9537L17.5917 14.1048L16.979 14.65C16.6719 14.9234 16.3635 15.0393 16.0381 15.0393C15.7053 15.0393 15.3969 14.9234 15.0972 14.65L14.4771 14.1048L10.8546 17.7163C11.0584 17.8336 11.3343 17.9085 11.6751 17.9085L19.8313 17.9085C19.3545 18.8045 19.0858 19.8234 19.0858 20.8995C19.0858 21.7267 19.2434 22.5198 19.5357 23.2473C18.445 23.666 17.2631 23.8891 16.0338 23.8891C10.4588 23.8891 5.85362 19.2899 5.85362 13.7089C5.85362 8.12785 10.4514 3.52864 16.0264 3.52864C21.6074 3.52864 26.2215 8.12785 26.2215 13.7089ZM10.1887 11.0904L10.1887 16.3273C10.1887 16.617 10.2268 16.8331 10.3014 17.0229L13.8096 13.51L10.2998 10.3989C10.2416 10.5302 10.1887 10.78 10.1887 11.0904ZM11.7788 9.50918C11.405 9.50918 11.121 9.57162 10.8589 9.72002L15.6164 13.9362C15.7629 14.0665 15.898 14.1187 16.0381 14.1187C16.1782 14.1187 16.3133 14.0665 16.4524 13.9362L21.2173 9.72144C20.9478 9.57304 20.6697 9.50918 20.296 9.50918Z" fill="#ffffff" fill-opacity="0.85"/>
  <path d="M30.6616 20.8995C30.6616 23.6705 28.339 25.9753 25.5806 25.9753C22.8015 25.9753 20.5085 23.6853 20.5085 20.8995C20.5085 18.1226 22.8015 15.831 25.5806 15.831C28.3626 15.831 30.6616 18.1212 30.6616 20.8995ZM24.7925 18.4654L24.7925 20.7657L24.8433 21.8407L24.3865 21.3765L23.5666 20.4883C23.4419 20.3453 23.2336 20.2477 23.035 20.2551C22.6172 20.2551 22.2843 20.5679 22.2991 20.9822C22.3065 21.1888 22.3834 21.3663 22.546 21.5105L25.0118 23.8295C25.2128 24.023 25.3901 24.0994 25.5895 24.0994C25.7991 24.0994 25.969 24.0128 26.1672 23.8295L28.6403 21.5105C28.803 21.3663 28.8798 21.1874 28.8798 20.9822C28.8798 20.5679 28.5558 20.2403 28.1439 20.2551C27.9453 20.2625 27.7431 20.3453 27.6137 20.4883L26.7925 21.3765L26.3445 21.8407L26.3938 20.7657L26.3938 18.4654C26.3938 18.0286 26.0438 17.6956 25.5895 17.6956C25.1366 17.6956 24.7925 18.0286 24.7925 18.4654Z" fill="#ffffff" fill-opacity="0.85"/>
 </g>
</svg>
