<svg viewBox="0 0 34.0358 24.3471" version="1.1" aria-hidden="true" focusable="false" data-prefix="fab" data-icon="font-awesome-flag" class="svg-inline--fa fa-font-awesome-flag fa-w-14" role="img" xmlns="http://www.w3.org/2000/svg">
  <path fill="currentColor" d="M28.5267 6.21902L28.5267 18.1363C28.5267 20.1474 27.5094 21.1688 25.463 21.1688L11.735 21.1688C12.2753 20.2496 12.5838 19.184 12.5838 18.0552C12.5838 17.6532 12.5452 17.2595 12.468 16.8787C13.6668 15.9746 15.2586 15.4372 17.0217 15.4372C20.172 15.4372 22.765 17.1506 23.5758 19.5878L25.4381 19.5878C26.4049 19.5878 26.9559 19.0659 26.9559 18.0596L26.9559 6.2957C26.9559 5.27904 26.4049 4.76753 25.4381 4.76753L8.59716 4.76753C7.62188 4.76753 7.07934 5.27904 7.07934 6.2957L7.07934 11.819C6.82233 11.7803 6.55892 11.7633 6.29187 11.7633C6.02631 11.7633 5.76434 11.7802 5.50865 11.8184L5.50865 6.21902C5.50865 4.20367 6.53617 3.18648 8.57224 3.18648L25.463 3.18648C27.5094 3.18648 28.5267 4.20789 28.5267 6.21902ZM20.3548 10.1523C20.3548 12.2413 18.8803 13.8236 17.0217 13.8029C15.1549 13.7926 13.6909 12.2413 13.6805 10.1523C13.6702 8.18364 15.1549 6.57215 17.0217 6.57215C18.8803 6.57215 20.3548 8.18364 20.3548 10.1523Z"/>
  <path fill="currentColor" d="M11.2482 18.0552C11.2482 20.765 8.97883 23.0115 6.29187 23.0115C3.57389 23.0115 1.33343 20.7857 1.33343 18.0552C1.33343 15.3372 3.57389 13.0989 6.29187 13.0989C9.00988 13.0989 11.2482 15.3351 11.2482 18.0552ZM5.69034 15.5481L5.69034 17.4558L3.78261 17.4558C3.42798 17.4558 3.18107 17.6942 3.18107 18.0552C3.18107 18.4162 3.42798 18.6567 3.78261 18.6567L5.69034 18.6567L5.69034 20.5645C5.69034 20.9212 5.93092 21.166 6.29187 21.166C6.65285 21.166 6.89132 20.9212 6.89132 20.5645L6.89132 18.6567L8.79903 18.6567C9.15579 18.6567 9.40058 18.4162 9.40058 18.0552C9.40058 17.6942 9.15579 17.4558 8.79903 17.4558L6.89132 17.4558L6.89132 15.5481C6.89132 15.1934 6.65285 14.9568 6.29187 14.9568C5.93092 14.9568 5.69034 15.1934 5.69034 15.5481Z"/>
</svg>