<svg viewBox="0 0 29.2546 27.2269" version="1.1" aria-hidden="true" focusable="false" data-prefix="fab" data-icon="font-awesome-flag" class="svg-inline--fa fa-font-awesome-flag fa-w-14" role="img" xmlns="http://www.w3.org/2000/svg">
  <path fill="currentColor" d="M19.2187 15.9021C18.7933 16.2119 18.4122 16.5785 18.0827 16.9881C17.1201 16.5685 15.9624 16.3025 14.6267 16.3025C10.148 16.3025 7.67106 19.2959 7.67106 20.9036C7.67106 21.1082 7.77535 21.1709 8.0285 21.1709L16.6829 21.1709C16.6945 21.6832 16.775 22.1782 16.9151 22.6485L8.49216 22.6485C6.87615 22.6485 6.10036 22.1608 6.10036 21.0899C6.10036 18.5314 9.33579 14.825 14.6267 14.825C16.4088 14.825 17.9563 15.2435 19.2187 15.9021ZM18.8478 9.02835C18.8478 11.5431 16.9586 13.609 14.6309 13.609C12.3156 13.609 10.4161 11.5535 10.4161 9.04904C10.4161 6.56993 12.3137 4.56813 14.6309 4.56813C16.9687 4.56813 18.8478 6.53677 18.8478 9.02835ZM11.9868 9.04904C11.9868 10.7743 13.2087 12.1418 14.6309 12.1418C16.0737 12.1418 17.2771 10.7536 17.2771 9.02835C17.2771 7.32633 16.086 6.04567 14.6309 6.04567C13.184 6.04567 11.9868 7.34915 11.9868 9.04904Z"/>
  <path fill="currentColor" d="M27.9192 20.9351C27.9192 23.6427 25.6498 25.9018 22.9628 25.9018C20.2469 25.9018 18.0065 23.6634 18.0065 20.9351C18.0065 18.2171 20.2469 15.9766 22.9628 15.9766C25.6829 15.9766 27.9192 18.215 27.9192 20.9351ZM22.3634 18.4362L22.3634 20.3335L20.4536 20.3335C20.0989 20.3335 19.852 20.5741 19.852 20.9351C19.852 21.3043 20.0989 21.5345 20.4536 21.5345L22.3634 21.5345L22.3634 23.4443C22.3634 23.8011 22.6019 24.0438 22.9628 24.0438C23.3238 24.0438 23.5644 23.8011 23.5644 23.4443L23.5644 21.5345L25.47 21.5345C25.8267 21.5345 26.0612 21.3043 26.0612 20.9351C26.0612 20.5741 25.8267 20.3335 25.47 20.3335L23.5644 20.3335L23.5644 18.4362C23.5644 18.0733 23.3238 17.8367 22.9628 17.8367C22.6019 17.8367 22.3634 18.0733 22.3634 18.4362Z"/>
</svg>
