<svg viewBox="0 0 29.9839 22.7969" version="1.1" aria-hidden="true" focusable="false" data-prefix="fab" data-icon="font-awesome-flag" class="svg-inline--fa fa-font-awesome-flag fa-w-14" role="img" xmlns="http://www.w3.org/2000/svg">
  <path fill="currentColor" d="M24.9517 11.3922C24.9517 16.8369 20.4313 21.3469 14.9867 21.3469C13.6089 21.3469 12.29 21.0572 11.0899 20.5339C12.0205 19.4359 12.5859 18.0222 12.5859 16.4947C12.5859 15.9823 12.5231 15.4833 12.3981 15.0077C13.1769 14.8205 14.047 14.7126 14.9867 14.7126C17.9208 14.7126 20.1816 15.7641 21.1726 16.9321C22.4925 15.4717 23.2879 13.5304 23.2879 11.3922C23.2879 6.7847 19.5839 3.09104 14.9763 3.09104C10.7746 3.09104 7.34323 6.17653 6.79336 10.2284C6.62944 10.2096 6.46243 10.2028 6.29399 10.2028C5.8835 10.2028 5.48179 10.2429 5.09345 10.322C5.63469 5.3686 9.90089 1.43754 14.9763 1.43754C20.421 1.43754 24.9517 5.94759 24.9517 11.3922ZM18.3385 9.37506C18.3385 11.4746 16.8662 13.08 14.9867 13.0593C13.1072 13.0386 11.6556 11.4746 11.6453 9.37506C11.6328 7.40011 13.1239 5.76561 14.9867 5.76561C16.8599 5.76561 18.3385 7.40011 18.3385 9.37506Z"/>
  <path fill="currentColor" d="M11.2503 16.4947C11.2503 19.2127 8.97881 21.4614 6.29399 21.4614C3.57599 21.4614 1.32518 19.2334 1.32518 16.4947C1.32518 13.7767 3.57599 11.5362 6.29399 11.5362C9.01197 11.5362 11.2503 13.7746 11.2503 16.4947ZM5.69244 13.9958L5.69244 15.9035L3.7826 15.9035C3.43008 15.9035 3.18317 16.1337 3.18317 16.4947C3.18317 16.866 3.43008 17.0941 3.7826 17.0941L5.69244 17.0941L5.69244 19.0039C5.69244 19.3607 5.92267 19.6055 6.29399 19.6055C6.65285 19.6055 6.89343 19.3607 6.89343 19.0039L6.89343 17.0941L8.80114 17.0941C9.15579 17.0941 9.39022 16.866 9.39022 16.4947C9.39022 16.1337 9.15579 15.9035 8.80114 15.9035L6.89343 15.9035L6.89343 13.9958C6.89343 13.6432 6.65285 13.3963 6.29399 13.3963C5.92267 13.3963 5.69244 13.6432 5.69244 13.9958Z"/>
</svg>