<svg viewBox="0 0 19.6708 19.7085" class="apple_svg" version="1.1" aria-hidden="true" focusable="false" role="img" xmlns="http://www.w3.org/2000/svg">
  <g fill="currentColor">
  <path d="M14.6293 19.7085C16.3458 19.7085 17.5237 19.1927 18.6063 18.03C18.6792 17.9497 18.7446 17.8694 18.8146 17.7944C19.3749 17.1532 19.6708 16.4558 19.6708 15.8276C19.6708 15.0771 19.2901 14.4063 18.4138 13.8061L15.457 11.7497C14.5177 11.0956 13.4459 11.0539 12.6137 11.8781L11.909 12.585C11.6353 12.8624 11.3667 12.8818 11.0328 12.6353C10.4992 12.267 9.54565 11.43 8.88474 10.7705C8.23299 10.1202 7.54554 9.34994 7.16382 8.77373C6.92459 8.43382 6.93674 8.1749 7.21408 7.89755L7.9284 7.18546C8.75257 6.3657 8.71458 5.28524 8.04939 4.34355L5.92917 1.32152C5.35291 0.498273 4.63993 0.100819 3.88439 0.0919942C3.25264 0.0831696 2.58653 0.356663 1.94315 0.91187C1.86289 0.981095 1.78782 1.05251 1.71988 1.11306C0.52593 2.21811 4.44089e-16 3.37795 4.44089e-16 5.20043C4.44089e-16 8.14055 1.6347 11.544 4.94891 14.8227C8.24781 18.0875 11.5803 19.7085 14.6293 19.7085ZM14.6149 17.9862C12.1278 18.0158 9.07899 16.3332 6.26237 13.5456C3.42587 10.753 1.71067 7.59585 1.74772 5.1073C1.76253 4.07591 2.13273 3.17177 2.85402 2.54257C2.93036 2.47727 3.00294 2.41937 3.07928 2.35769C3.34097 2.14016 3.62853 2.01728 3.88248 2.01728C4.16515 2.01728 4.41849 2.13923 4.61613 2.4306L6.41579 5.11363C6.65672 5.47445 6.66459 5.87584 6.30153 6.21554L5.5665 6.93826C4.78993 7.6954 4.85539 8.55235 5.32315 9.22536C5.82778 9.95812 6.82229 11.0878 7.71038 11.9531C8.67601 12.907 9.90066 14.0018 10.5812 14.4834C11.2556 14.9451 12.1148 15.0166 12.8623 14.2326L13.5836 13.4976C13.9307 13.147 14.3247 13.1497 14.6943 13.3907L17.2973 15.1178C17.5996 15.3116 17.7092 15.5613 17.7092 15.8404C17.7092 16.1046 17.5988 16.3893 17.3674 16.656C17.3131 16.7324 17.2566 16.8035 17.1913 16.8725C16.5607 17.6026 15.6477 17.9714 14.6149 17.9862Z"/>
 </g>
</svg>
