<svg viewBox="0 0 18.6855 19.3968" class="apple_svg_phone" version="1.1" aria-hidden="true" focusable="false" role="img" xmlns="http://www.w3.org/2000/svg">
  <g fill="currentColor">
  <path d="M5.14867 14.2125C8.07309 17.148 11.6214 19.3968 14.5072 19.3968C15.7967 19.3968 16.9356 18.9484 17.8426 17.9346C18.3757 17.3477 18.685 16.6734 18.685 15.9984C18.685 15.4517 18.4777 14.9345 17.9594 14.5691L14.9497 12.4271C14.4779 12.0829 14.0768 11.9312 13.717 11.9312C13.2485 11.9312 12.842 12.1916 12.3797 12.6437L11.6669 13.3522C11.5561 13.463 11.4168 13.5054 11.2872 13.5054C11.1383 13.5054 10.9857 13.4459 10.881 13.3888C10.2584 13.0538 9.19685 12.1348 8.21162 11.157C7.2352 10.1718 6.31199 9.11303 5.9798 8.49361C5.92268 8.38144 5.86464 8.23775 5.86464 8.0857C5.86464 7.9589 5.90566 7.82103 6.01638 7.7103L6.72495 6.9918C7.17561 6.53261 7.44344 6.11871 7.44344 5.65764C7.44344 5.29784 7.28428 4.89815 6.93868 4.41754L4.81971 1.43654C4.45515 0.911563 3.91236 0.691183 3.34086 0.691183C2.6782 0.691183 2.00958 0.977 1.42548 1.53916C0.43535 2.46697 4.44089e-16 3.6175 4.44089e-16 4.88966C4.44089e-16 7.78145 2.2192 11.2955 5.14867 14.2125Z"/>
 </g>
</svg>
