<svg viewBox="0 0 32.0755 27.398" class="apple_svg" version="1.1" aria-hidden="true" focusable="false" role="img" xmlns="http://www.w3.org/2000/svg">
  <g fill="currentColor">
  <path d="M26.2215 13.7089L26.184 14.4392C25.9857 14.4179 25.7842 14.4083 25.5806 14.4083C23.7749 14.4083 22.1292 15.1639 20.9484 16.3753C20.9247 16.3524 20.8979 16.3304 20.8693 16.309C20.3627 15.9517 19.8432 15.5857 19.0971 15.0641C18.4901 14.6428 18.1113 14.7548 17.6698 15.1958L17.2704 15.5827C17.1547 15.6949 16.9596 15.6853 16.8247 15.598C16.4712 15.3854 15.8808 14.9162 15.3262 14.3542C14.7752 13.8106 14.2826 13.1995 14.0837 12.8571C14.02 12.7554 13.9662 12.5719 14.099 12.4303L14.486 12.0194C14.9366 11.5359 15.0509 11.1976 14.6148 10.5832L13.3874 8.83552C12.9764 8.25458 12.3646 8.33335 11.6644 8.84894C11.6058 8.88996 11.5684 8.92876 11.5274 8.96615C9.76327 10.7377 11.2575 13.71 13.6176 16.0627C15.4707 17.9274 17.7 19.2393 19.4231 18.8634C19.2029 19.5036 19.0858 20.1891 19.0858 20.8995C19.0858 21.7267 19.2434 22.5198 19.5357 23.2473C18.445 23.666 17.2631 23.8891 16.0338 23.8891C10.4588 23.8891 5.85362 19.2899 5.85362 13.7089C5.85362 8.12785 10.4514 3.52864 16.0264 3.52864C21.6074 3.52864 26.2215 8.12785 26.2215 13.7089Z"/>
  <path d="M30.6616 20.8995C30.6616 23.6705 28.339 25.9753 25.5806 25.9753C22.8015 25.9753 20.5085 23.6853 20.5085 20.8995C20.5085 18.1226 22.8015 15.831 25.5806 15.831C28.3626 15.831 30.6616 18.1212 30.6616 20.8995ZM24.7925 18.4654L24.7925 20.7657L24.8433 21.8407L24.3865 21.3765L23.5666 20.4883C23.4419 20.3453 23.2336 20.2477 23.035 20.2551C22.6172 20.2551 22.2843 20.5679 22.2991 20.9822C22.3065 21.1888 22.3834 21.3663 22.546 21.5105L25.0118 23.8295C25.2128 24.023 25.3901 24.0994 25.5895 24.0994C25.7991 24.0994 25.969 24.0128 26.1672 23.8295L28.6403 21.5105C28.803 21.3663 28.8798 21.1874 28.8798 20.9822C28.8798 20.5679 28.5558 20.2403 28.1439 20.2551C27.9453 20.2625 27.7431 20.3453 27.6137 20.4883L26.7925 21.3765L26.3445 21.8407L26.3938 20.7657L26.3938 18.4654C26.3938 18.0286 26.0438 17.6956 25.5895 17.6956C25.1366 17.6956 24.7925 18.0286 24.7925 18.4654Z"/>
 </g>
</svg>
