<svg viewBox="0 0 31.5268 27.398" class="apple_svg" version="1.1" aria-hidden="true" focusable="false" role="img" xmlns="http://www.w3.org/2000/svg">
  <g fill="currentColor">
  <path d="M11.2404 5.43712L13.3593 8.41812C13.7049 8.89872 13.8641 9.29842 13.8641 9.65822C13.8641 10.1193 13.5963 10.5332 13.1456 10.9924L12.437 11.7109C12.3263 11.8216 12.2853 11.9595 12.2853 12.0863C12.2853 12.2383 12.3433 12.382 12.4004 12.4942C12.7326 13.1136 13.6558 14.1724 14.6323 15.1576C15.6175 16.1354 16.6791 17.0544 17.3016 17.3894C17.4064 17.4465 17.5589 17.506 17.7078 17.506C17.8375 17.506 17.9768 17.4635 18.0875 17.3528L18.8003 16.6443C19.2626 16.1922 19.6691 15.9318 20.1376 15.9318C20.3242 15.9318 20.5218 15.9726 20.735 16.0608C19.3887 17.2488 18.5371 18.9836 18.5371 20.8995C18.5371 21.6633 18.6714 22.3979 18.9245 23.0775C16.4999 22.3669 13.8456 20.498 11.5693 18.2131C8.63984 15.2961 6.42064 11.782 6.42064 8.89023C6.42064 7.61808 6.85599 6.46755 7.84612 5.53974C8.43022 4.97758 9.09884 4.69176 9.7615 4.69176C10.333 4.69176 10.8758 4.91214 11.2404 5.43712Z"/>
  <path d="M30.1129 20.8995C30.1129 23.6705 27.7903 25.9753 25.032 25.9753C22.2528 25.9753 19.9598 23.6853 19.9598 20.8995C19.9598 18.1226 22.2528 15.831 25.032 15.831C27.8139 15.831 30.1129 18.1212 30.1129 20.8995ZM24.2438 18.4654L24.2438 20.7657L24.2946 21.8407L23.8378 21.3765L23.0179 20.4883C22.8932 20.3453 22.685 20.2477 22.4863 20.2551C22.0685 20.2551 21.7356 20.5679 21.7504 20.9822C21.7579 21.1888 21.8347 21.3663 21.9973 21.5105L24.4631 23.8295C24.6641 24.023 24.8414 24.0994 25.0408 24.0994C25.2504 24.0994 25.4203 24.0128 25.6185 23.8295L28.0917 21.5105C28.2543 21.3663 28.3311 21.1874 28.3311 20.9822C28.3311 20.5679 28.0071 20.2403 27.5952 20.2551C27.3966 20.2625 27.1944 20.3453 27.065 20.4883L26.2438 21.3765L25.7958 21.8407L25.8451 20.7657L25.8451 18.4654C25.8451 18.0286 25.4951 17.6956 25.0408 17.6956C24.5879 17.6956 24.2438 18.0286 24.2438 18.4654Z"/>
 </g>
</svg>
