<svg viewBox="0 0 32.0755 27.398" class="apple_svg" version="1.1" aria-hidden="true" focusable="false" role="img" xmlns="http://www.w3.org/2000/svg">
  <g fill="currentColor">
  <path d="M26.2215 13.6964L26.1833 14.4392C25.9853 14.4179 25.784 14.4083 25.5806 14.4083C25.0073 14.4083 24.45 14.4845 23.9214 14.6345C23.9624 14.3281 23.9809 14.0145 23.9809 13.6964C23.9809 9.29024 20.4326 5.74935 16.0264 5.74935C11.6277 5.74935 8.10019 9.29024 8.10019 13.6964C8.10019 18.1026 11.6351 21.6434 16.0338 21.6434C17.1197 21.6434 18.153 21.4284 19.0928 21.0365C19.1037 21.8111 19.2578 22.5527 19.5317 23.2363C18.4421 23.6541 17.2615 23.8766 16.0338 23.8766C10.4588 23.8766 5.85362 19.2774 5.85362 13.6964C5.85362 8.1154 10.4514 3.51617 16.0264 3.51617C21.6074 3.51617 26.2215 8.1154 26.2215 13.6964Z"/>
  <path d="M13.4863 9.03808L14.6661 10.7028C15.0802 11.2864 14.9732 11.6225 14.5483 12.0803L14.176 12.4729C14.0469 12.6071 14.0932 12.7833 14.1533 12.885C14.3412 13.2054 14.8229 13.7945 15.3481 14.3198C15.877 14.8487 16.4455 15.2996 16.7843 15.5086C16.9081 15.5848 17.0922 15.6018 17.2043 15.4933L17.5905 15.1136C18.0159 14.6983 18.3763 14.5864 18.9591 14.993C19.6818 15.4888 20.1682 15.8402 20.6455 16.1828C20.751 16.261 20.8327 16.3463 20.8925 16.4367C20.3084 17.0408 19.8438 17.7594 19.5374 18.5545C17.8542 19.1241 15.5828 17.8262 13.7055 15.955C11.4555 13.6975 10.0236 10.8572 11.7217 9.15908C11.7591 9.1217 11.7965 9.0829 11.8478 9.04551C12.5149 8.55421 13.0937 8.47545 13.4863 9.03808Z"/>
  <path d="M30.6616 20.8995C30.6616 23.6705 28.339 25.9753 25.5806 25.9753C22.8015 25.9753 20.5085 23.6853 20.5085 20.8995C20.5085 18.1226 22.8015 15.831 25.5806 15.831C28.3626 15.831 30.6616 18.1212 30.6616 20.8995ZM24.7925 18.4654L24.7925 20.7657L24.8433 21.8407L24.3865 21.3765L23.5666 20.4883C23.4419 20.3453 23.2336 20.2477 23.035 20.2551C22.6172 20.2551 22.2843 20.5679 22.2991 20.9822C22.3065 21.1888 22.3834 21.3663 22.546 21.5105L25.0118 23.8295C25.2128 24.023 25.3901 24.0994 25.5895 24.0994C25.7991 24.0994 25.969 24.0128 26.1672 23.8295L28.6403 21.5105C28.803 21.3663 28.8798 21.1874 28.8798 20.9822C28.8798 20.5679 28.5558 20.2403 28.1439 20.2551C27.9453 20.2625 27.7431 20.3453 27.6137 20.4883L26.7925 21.3765L26.3445 21.8407L26.3938 20.7657L26.3938 18.4654C26.3938 18.0286 26.0438 17.6956 25.5895 17.6956C25.1366 17.6956 24.7925 18.0286 24.7925 18.4654Z"/>
 </g>
</svg>
