<svg viewBox="0 0 32.315 27.398" class="apple_svg" version="1.1" aria-hidden="true" focusable="false" role="img" xmlns="http://www.w3.org/2000/svg">
  <g fill="currentColor">
  <path d="M12.2513 5.16628L14.3715 8.1883C15.0367 9.12999 15.0747 10.2105 14.2505 11.0302L13.5362 11.7423C13.2588 12.0197 13.2467 12.2786 13.4859 12.6185C13.8676 13.1947 14.5551 13.9649 15.2068 14.6153C15.8678 15.2748 16.8213 16.1117 17.3549 16.48C17.6888 16.7265 17.9574 16.7071 18.2311 16.4298L18.9358 15.7229C19.768 14.8987 20.8398 14.9403 21.7791 15.5945L21.9495 15.713C21.4315 16.0923 20.9758 16.5512 20.6 17.0719C20.3619 17.0407 20.1245 17.1214 19.9057 17.3423L19.1844 18.0774C18.4369 18.8614 17.5777 18.7899 16.9033 18.3281C16.2228 17.8466 14.9981 16.7518 14.0325 15.7978C13.1444 14.9326 12.1499 13.8029 11.6453 13.0701C11.1775 12.3971 11.112 11.5402 11.8886 10.783L12.6236 10.0603C12.9867 9.7206 12.9788 9.31921 12.7379 8.95839L10.9382 6.27535C10.7406 5.98399 10.4873 5.86204 10.2046 5.86204C9.95064 5.86204 9.66308 5.98492 9.40139 6.20245C9.32504 6.26413 9.25247 6.32202 9.17613 6.38732C8.45484 7.01653 8.08463 7.92066 8.06983 8.95205C8.03277 11.4406 9.74798 14.5977 12.5845 17.3904C14.8339 19.6166 17.2314 21.1381 19.3718 21.6423C19.4431 22.2894 19.6141 22.9077 19.869 23.4821C17.1228 23.1513 14.1838 21.5502 11.271 18.6675C7.95681 15.3888 6.32211 11.9853 6.32211 9.04519C6.32211 7.22271 6.84804 6.06287 8.04198 4.95782C8.10993 4.89727 8.185 4.82585 8.26526 4.75663C8.90863 4.20142 9.57475 3.92793 10.2065 3.93675C10.962 3.94558 11.675 4.34303 12.2513 5.16628Z"/>
  <path d="M30.9012 20.8995C30.9012 23.6705 28.5785 25.9753 25.8202 25.9753C23.0411 25.9753 20.7481 23.6853 20.7481 20.8995C20.7481 18.1226 23.0411 15.831 25.8202 15.831C28.6022 15.831 30.9012 18.1212 30.9012 20.8995ZM25.0321 18.4654L25.0321 20.7657L25.0829 21.8407L24.6261 21.3765L23.8062 20.4883C23.6814 20.3453 23.4732 20.2477 23.2746 20.2551C22.8567 20.2551 22.5239 20.5679 22.5387 20.9822C22.5461 21.1888 22.6229 21.3663 22.7856 21.5105L25.2514 23.8295C25.4523 24.023 25.6296 24.0994 25.829 24.0994C26.0387 24.0994 26.2086 24.0128 26.4067 23.8295L28.8799 21.5105C29.0425 21.3663 29.1194 21.1874 29.1194 20.9822C29.1194 20.5679 28.7954 20.2403 28.3835 20.2551C28.1849 20.2625 27.9826 20.3453 27.8533 20.4883L27.032 21.3765L26.584 21.8407L26.6334 20.7657L26.6334 18.4654C26.6334 18.0286 26.2834 17.6956 25.829 17.6956C25.3761 17.6956 25.0321 18.0286 25.0321 18.4654Z"/>
 </g>
</svg>
